<?xml version="1.0"?>
<svg width="650" height="380" xmlns="http://www.w3.org/2000/svg" xmlns:svg="http://www.w3.org/2000/svg" display="block">
 <title id="rs-title">Research strategy: one computational engine applied across the vascular system</title>
 <desc id="rs-desc">Three computational capabilities converge into one predictive engine (trustworthy Digital Twins in Healthcare), which is then applied outward across the vascular system from cells to vessels to implanted devices.</desc>
 <!-- ============ THEME (edit palette here) ============ -->
 <style>:root{
      --ink:#16233b; --muted:#5b6675; --body:#48505f; --line:#dde3ec;
      --cool:#1b4f72; --cool-2:#2874a6; --cool-bg:#eef4f9; --cool-stroke:#d3e2ee;
      --cell:#922b21;   --cell-bg:#f7ece9;   --cell-stroke:#eed7d1;
      --vessel:#c0392b; --vessel-bg:#fcecea; --vessel-stroke:#f3d6d2;
      --device:#ca6f1e; --device-bg:#fbf2e4; --device-stroke:#f0dfc4;
    }
    .eyebrow{font-size:11px;font-weight:700;letter-spacing:.11em;fill:var(--muted);}
    .ctitle{font-size:16px;font-weight:700;fill:var(--ink);}
    .cbody{font-size:14.5px;font-weight:400;fill:var(--body);}
    .tag{font-size:12.5px;font-weight:500;
         font-family:ui-monospace,&#x27;SF Mono&#x27;,&#x27;Cascadia Code&#x27;,Menlo,Consolas,monospace;}
    .core-cap{font-size:13px;font-weight:600;letter-spacing:.15em;fill:#ffffff;fill-opacity:.85;}
    .core-big{font-size:24px;font-weight:800;fill:#ffffff;letter-spacing:.01em;}
    .axis{font-size:11px;font-weight:500;letter-spacing:.06em;fill:var(--muted);
          font-family:ui-monospace,&#x27;SF Mono&#x27;,Menlo,Consolas,monospace;}</style>
 <defs>
  <marker id="arrowCool" markerHeight="7" markerWidth="7" orient="auto-start-reverse" refX="8" refY="5" viewBox="0 0 10 10">
   <path d="m0,1l9,4l-9,4l0,-8z" fill="#2874a6" id="svg_1"/>
  </marker>
  <marker id="arrowWarm" markerHeight="7" markerWidth="7" orient="auto-start-reverse" refX="8" refY="5" viewBox="0 0 10 10">
   <path d="m0,1l9,4l-9,4l0,-8z" fill="#b03a2e" id="svg_2"/>
  </marker>
  <linearGradient id="coreGrad" x1="0" x2="1" y1="0" y2="0.15">
   <stop offset="0" stop-color="#1b4f72"/>
   <stop offset="0.52" stop-color="#6b3a6e"/>
   <stop offset="1" stop-color="#922b21"/>
  </linearGradient>
 </defs>
 <!-- ============ ENGINE EYEBROW ============ -->
 <!-- ============ CAPABILITY CARDS (row of 3) ============ -->
 <!-- capability 1 -->
 <!-- capability 2 -->
 <!-- capability 3 -->
 <!-- ============ CONVERGE: capabilities -> core ============ -->
 <!-- ============ CORE ============ -->
 <!-- ============ PORTFOLIO EYEBROW + RADIATE: core -> targets ============ -->
 <!-- ============ TARGET CARDS (row of 3) ============ -->
 <!-- target 1: cells -->
 <!-- target 2: the vessel -->
 <!-- target 3: medical devices -->
 <!-- ============ AXIS CAPTION ============ -->
 <g class="layer">
  <title>Layer 1</title>
  <text class="eyebrow" font-size="11" id="svg_3" transform="matrix(1, 0, 0, 1, 0, 0)" x="71.02" y="140.91">COMPUTATIONAL CORE</text>
  <rect fill="var(--cool-bg)" height="140" id="svg_5" rx="12" stroke="var(--cool-stroke)" transform="translate(3.81172, 148.321) scale(1, 0.629032) translate(-3.81172, -148.321) matrix(1, 0, 0, 1, 4.26627, 7.8661)" width="200" x="0.91" y="-88.16"/>
  <text class="ctitle" font-size="16" id="svg_16" transform="matrix(1, 0, 0, 1, 4.26627, 7.8661)" x="14.91" y="16.55">Large-scale computing</text>
  <text class="tag" fill="var(--cool-2)" font-size="12.5" id="svg_17" transform="matrix(1, 0, 0, 1, 4.26627, 7.8661)" x="16.91" y="34.55">&gt;80% eff · 300k+ cores</text>
  <text class="cbody" font-size="14.5" id="svg_18" transform="matrix(1, 0, 0, 1, 4.26627, 7.8661)" x="16.91" y="54.55">Cell-resolved blood flow,</text>
  <text class="cbody" font-size="14.5" id="svg_19" transform="matrix(1, 0, 0, 1, 4.26627, 7.8661)" x="16.91" y="70.55">beyond experiment&#x27;s reach.</text>
  <rect fill="var(--cool-bg)" height="140" id="svg_21" rx="12" stroke="var(--cool-stroke)" transform="translate(223.811, 148.321) scale(1, 0.635484) translate(-223.811, -148.321) matrix(1, 0, 0, 1, 224.266, 7.8661)" width="200" x="0.91" y="-87.26"/>
  <text class="ctitle" font-size="16" id="svg_26" transform="matrix(1, 0, 0, 1, 224.266, 7.8661)" x="16.91" y="16.55">Multiscale modelling</text>
  <text class="tag" fill="var(--cool-2)" font-size="12.5" id="svg_27" transform="matrix(1, 0, 0, 1, 224.266, 7.8661)" x="16.91" y="34.55">molecule → cell → vessel</text>
  <text class="cbody" font-size="14.5" id="svg_28" transform="matrix(1, 0, 0, 1, 224.266, 7.8661)" x="16.91" y="54.55">From molecules to whole</text>
  <text class="cbody" font-size="14.5" id="svg_29" transform="matrix(1, 0, 0, 1, 224.266, 7.8661)" x="16.91" y="70.55">vessels, in one pipeline.</text>
  <rect fill="var(--cool-bg)" height="140" id="svg_31" rx="12" stroke="var(--cool-stroke)" transform="translate(443.812, 148.321) scale(1, 0.63871) translate(-443.812, -148.321) matrix(1, 0, 0, 1, 444.266, 7.8661)" width="200" x="0.91" y="-86.82"/>
  <text class="ctitle" font-size="16" id="svg_34" transform="matrix(1, 0, 0, 1, 444.266, 7.8661)" x="16.91" y="16.55">Quantified trust</text>
  <text class="tag" fill="var(--cool-2)" font-size="12.5" id="svg_35" transform="matrix(1, 0, 0, 1, 444.266, 7.8661)" x="16.91" y="34.55">verify · validate · UQ</text>
  <text class="cbody" font-size="14.5" id="svg_36" transform="matrix(1, 0, 0, 1, 444.266, 7.8661)" x="16.91" y="54.55">Validation and UQ make</text>
  <text class="cbody" font-size="14.5" id="svg_37" transform="matrix(1, 0, 0, 1, 444.266, 7.8661)" x="16.91" y="70.55">predictions trustworthy.</text>
  <g fill="none" id="svg_38" stroke="var(--cool-2)" stroke-width="1.6" transform="translate(0.909091, -55.4545) translate(0, -0.520833) translate(0, -0.520833) translate(0, -0.520833) translate(-0.520833) translate(-0.520833) translate(-0.520833) translate(-0.520833) translate(-0.520833) translate(-0.520833) translate(-0.520833) translate(-1.0989) translate(-1.0989) translate(-1.0989) translate(-1.0989) translate(-1.0989) translate(-1.0989) translate(-1.0989) translate(-1.0989) translate(-1.0989) translate(-1.0989) translate(-1.0989) translate(0, 1.0989) translate(0, -1.0989) translate(0, -1.0989) translate(0, -1.0989) translate(0, -1.0989) translate(0, -1.0989) translate(0, -1.0989) translate(0, -1.0989) translate(0, -1.0989) translate(0, -1.0989) translate(0, -1.0989) translate(0, -1.0989) translate(0, -1.0989) translate(0, -1.0989) translate(0, -1.0989) translate(0, -1.0989) translate(0, -1.0989) translate(0, -1.0989) translate(0, -1.0989) translate(0, -1.0989) translate(0, -1.0989) translate(0, -1.0989) translate(0, -1.0989) translate(0, -1.0989) translate(0, -1.0989) translate(0, -1.0989) translate(0, -1.0989) translate(0, -1.0989)">
   <path d="m120,178c0,28 170,24 170,50" id="svg_39" marker-end="url(#arrowCool)"/>
   <path d="m340,178c0,24 0,26 0,50" id="svg_40" marker-end="url(#arrowCool)"/>
   <path d="m560,178c0,28 -170,24 -170,50" id="svg_41" marker-end="url(#arrowCool)"/>
  </g>
  <rect fill="url(#coreGrad)" height="80" id="svg_42" rx="18" width="220" x="215.17" y="143.42"/>
  <text class="core-cap" font-size="11" id="svg_43" text-anchor="middle" x="325.17" y="164.42">TRUSTWORTHY</text>
  <text class="core-big" font-size="19" id="svg_44" text-anchor="middle" x="325.17" y="193.05">DIGITAL TWINS</text>
  <text class="core-cap" font-size="11" id="svg_45" text-anchor="middle" x="325.17" y="212.42">in Healthcare</text>
  <text class="eyebrow" font-size="11" id="svg_46" x="75.14" y="231.13">APPLIED OUTWARD</text>
  <g fill="none" id="svg_47" stroke="#b03a2e" stroke-width="1.6" transform="translate(0.909091, -55.4545) translate(0, 1) translate(0, 1) translate(0, 1) translate(0, 1) translate(0, 1) translate(0, 1) translate(0, -1) translate(0, -1) translate(0, -1) translate(0, -1) translate(0, -1) translate(0, -1) translate(0, -1) translate(0, -1) translate(0, -1) translate(0, -1) translate(0, -1) translate(0, -1) translate(0, -1) translate(0, -1) matrix(1, 0, 0, 1, -15.7337, -51.1339)">
   <path d="m340,336l0,30" id="svg_48"/>
   <path d="m340,366c0,13 -220,10 -220,26" id="svg_49" marker-end="url(#arrowWarm)"/>
   <path d="m340,366c0,13 0,12 0,26" id="svg_50" marker-end="url(#arrowWarm)"/>
   <path d="m340,366c0,13 220,10 220,26" id="svg_51" marker-end="url(#arrowWarm)"/>
  </g>
  <rect fill="var(--device-bg)" height="140" id="svg_73" rx="12" stroke="var(--device-stroke)" transform="translate(443.811, 334.411) scale(1, 0.693548) translate(-443.811, -334.411) matrix(1, 0, 0, 1, 444.266, 334.866)" width="200" x="0.91" y="-79.96"/>
  <text class="ctitle" font-size="16" id="svg_77" transform="matrix(1, 0, 0, 1, 444.266, 334.866)" x="17.82" y="-26.64">Medical devices</text>
  <text class="tag" fill="var(--device)" font-size="12.5" id="svg_78" transform="matrix(1, 0, 0, 1, 444.266, 334.866)" x="17.82" y="-8.64">implants · diverters</text>
  <text class="cbody" font-size="14.5" id="svg_79" transform="matrix(1, 0, 0, 1, 444.266, 334.866)" x="17.82" y="11.36">Design and optimisation</text>
  <text class="cbody" font-size="14.5" id="svg_80" transform="matrix(1, 0, 0, 1, 444.266, 334.866)" x="17.82" y="27.36">of implants and devices.</text>
  <rect fill="var(--cell-bg)" height="140" id="svg_53" rx="12" stroke="var(--cell-stroke)" transform="matrix(1, 0, 0, 0.683871, 0.909095, -139.689)" width="200" x="4.72" y="613.95"/>
  <text class="ctitle" font-size="16" id="svg_58" transform="matrix(1, 0, 0, 1, 4.26627, 334.866) matrix(1, 0, 0, 1, 0.454545, -43.6364)" x="16.91" y="16.55">Inside the vessel</text>
  <text class="tag" fill="var(--cell)" font-size="12.5" id="svg_59" transform="matrix(1, 0, 0, 1, 4.26627, 334.866) matrix(1, 0, 0, 1, 0.454545, -43.6364)" x="16.91" y="34.55">thrombosis · platelets</text>
  <text class="cbody" font-size="14.5" id="svg_60" transform="matrix(1, 0, 0, 1, 4.26627, 334.866) matrix(1, 0, 0, 1, 0.454545, -43.6364)" x="16.91" y="54.55">Platelets, blood and</text>
  <text class="cbody" font-size="14.5" id="svg_61" transform="matrix(1, 0, 0, 1, 4.26627, 334.866) matrix(1, 0, 0, 1, 0.454545, -43.6364)" x="16.91" y="70.55">thrombus: how clots form.</text>
  <rect fill="var(--vessel-bg)" height="140" id="svg_63" rx="12" stroke="var(--vessel-stroke)" transform="translate(224.265, 336.983) scale(1, 1.02455) translate(-224.265, -336.983) matrix(1, 0, 0, 0.654839, -223.357, -474.866)" width="200" x="448.99" y="1157.8"/>
  <text class="ctitle" font-size="16" id="svg_68" transform="matrix(1, 0, 0, 1, 224.266, 334.866) matrix(1, 0, 0, 1, 0.454544, -45.9091)" x="16.91" y="16.55">The vessel itself</text>
  <text class="tag" fill="var(--vessel)" font-size="12.5" id="svg_69" transform="matrix(1, 0, 0, 1, 224.266, 334.866) matrix(1, 0, 0, 1, 0.454544, -45.9091)" x="16.91" y="34.55">stroke · aneurysms</text>
  <text class="cbody" font-size="14.5" id="svg_70" transform="matrix(1, 0, 0, 1, 224.266, 334.866) matrix(1, 0, 0, 1, 0.454544, -45.9091)" x="16.91" y="54.55">Patient models for stroke</text>
  <text class="cbody" font-size="14.5" id="svg_71" transform="matrix(1, 0, 0, 1, 224.266, 334.866) matrix(1, 0, 0, 1, 0.454544, -45.9091)" x="16.91" y="70.55">and aneurysm treatment.</text>
 </g>
</svg>